<?xml version="1.0" standalone="no"?>
<!DOCTYPE svg PUBLIC "-//W3C//DTD SVG 20010904//EN"
 "http://www.w3.org/TR/2001/REC-SVG-20010904/DTD/svg10.dtd">
<svg version="1.0" xmlns="http://www.w3.org/2000/svg"
 width="1275.000000pt" height="1234.000000pt" viewBox="0 0 1275.000000 1234.000000"
 preserveAspectRatio="xMidYMid meet">

<g transform="translate(0.000000,1234.000000) scale(0.100000,-0.100000)"
fill="#000000" stroke="none">
<path d="M6340 11078 c-36 -5 -126 -13 -200 -18 -179 -13 -292 -25 -310 -33
-8 -4 -46 -12 -85 -17 -38 -6 -94 -15 -122 -20 -29 -6 -77 -14 -105 -18 -29
-4 -63 -13 -75 -20 -12 -7 -37 -12 -57 -12 -19 0 -38 -4 -41 -10 -3 -5 -19
-10 -35 -10 -16 0 -44 -6 -62 -14 -18 -8 -51 -19 -73 -24 -81 -21 -197 -58
-227 -73 -10 -5 -27 -9 -37 -9 -11 0 -22 -4 -25 -9 -3 -4 -27 -16 -53 -25 -44
-16 -71 -27 -143 -58 -14 -6 -36 -15 -50 -20 -14 -6 -38 -16 -53 -24 -16 -8
-35 -14 -43 -14 -8 0 -14 -4 -14 -10 0 -5 -6 -10 -14 -10 -16 0 -318 -153
-421 -214 -108 -62 -180 -108 -235 -146 -36 -25 -72 -49 -81 -55 -9 -5 -36
-25 -60 -42 -24 -18 -78 -58 -119 -88 -41 -30 -90 -68 -109 -85 -18 -16 -36
-30 -40 -30 -3 0 -19 -12 -36 -28 -16 -15 -84 -75 -150 -134 -108 -96 -283
-277 -435 -448 -55 -62 -68 -78 -149 -186 -25 -33 -47 -61 -50 -64 -3 -3 -23
-31 -45 -63 -21 -31 -52 -72 -67 -90 -16 -17 -29 -35 -29 -40 0 -11 -83 -141
-92 -145 -4 -2 -8 -7 -8 -12 0 -5 -23 -45 -51 -90 -53 -87 -79 -131 -111 -193
-11 -20 -24 -40 -29 -43 -5 -3 -9 -14 -9 -25 0 -10 -4 -19 -10 -19 -5 0 -10
-8 -10 -19 0 -10 -7 -24 -15 -31 -8 -7 -15 -18 -15 -25 0 -7 -16 -42 -35 -79
-19 -37 -35 -76 -35 -86 0 -9 -7 -23 -15 -30 -8 -7 -15 -21 -15 -31 0 -18 -8
-37 -32 -79 -4 -8 -11 -22 -14 -30 -21 -55 -53 -128 -65 -152 -5 -10 -9 -26
-9 -35 0 -10 -7 -27 -15 -37 -8 -11 -15 -32 -15 -47 0 -15 -4 -31 -10 -34 -5
-3 -10 -16 -10 -28 0 -12 -7 -31 -15 -41 -8 -11 -15 -32 -15 -47 0 -15 -4 -31
-10 -34 -5 -3 -10 -21 -10 -38 0 -18 -7 -41 -15 -51 -8 -11 -15 -34 -15 -52 0
-18 -4 -36 -10 -39 -5 -3 -10 -23 -10 -44 0 -20 -5 -42 -10 -47 -11 -11 -24
-72 -38 -169 -4 -27 -12 -56 -17 -64 -5 -8 -12 -47 -17 -85 -18 -166 -24 -202
-32 -214 -41 -66 -40 -1350 1 -1416 4 -6 11 -38 15 -71 13 -112 27 -196 35
-208 4 -7 11 -34 15 -62 11 -83 29 -159 39 -169 5 -6 9 -21 9 -35 0 -13 4 -38
9 -55 5 -17 16 -56 24 -86 27 -97 53 -178 77 -245 5 -11 15 -42 25 -70 16 -50
25 -72 50 -130 7 -16 19 -46 26 -65 20 -57 123 -277 170 -365 12 -22 25 -47
29 -55 7 -15 25 -49 91 -165 46 -83 155 -251 167 -259 17 -10 852 950 852 980
0 9 -28 73 -63 142 -35 70 -83 174 -106 232 -24 58 -47 114 -52 125 -31 71
-116 361 -149 510 -102 449 -105 1065 -10 1535 171 843 641 1638 1291 2181
221 184 515 373 759 487 488 227 932 333 1460 349 351 10 670 -25 980 -109 41
-11 89 -24 105 -28 192 -51 530 -197 731 -315 176 -104 404 -263 529 -370 94
-80 274 -246 277 -255 2 -5 28 -35 58 -67 57 -60 181 -206 239 -281 19 -24 39
-42 47 -40 12 3 140 127 707 687 119 118 217 220 217 226 0 17 -196 242 -320
365 -205 205 -342 327 -481 431 -25 19 -79 59 -120 90 -63 47 -271 188 -334
226 -208 126 -547 298 -675 344 -19 6 -48 18 -65 24 -16 7 -46 18 -65 25 -19
7 -58 23 -87 36 -28 13 -58 24 -65 24 -7 0 -44 11 -83 25 -38 13 -79 25 -91
25 -11 0 -24 3 -28 7 -17 17 -122 46 -216 59 -19 3 -44 9 -55 15 -11 5 -42 14
-70 20 -27 5 -70 15 -95 20 -25 6 -75 14 -112 19 -38 5 -73 12 -79 16 -14 8
-136 20 -334 34 -77 5 -174 14 -215 19 -91 12 -291 12 -380 -1z"/>
<path d="M6360 7410 c-8 -5 -34 -10 -57 -10 -23 0 -45 -4 -48 -10 -3 -5 -14
-10 -23 -10 -9 0 -30 -7 -46 -15 -15 -8 -35 -15 -43 -15 -26 0 -188 -83 -227
-117 -12 -10 -35 -27 -51 -37 -42 -26 -194 -176 -210 -206 -8 -14 -28 -39 -44
-57 -17 -18 -31 -36 -31 -41 0 -5 -7 -15 -15 -22 -8 -7 -15 -21 -15 -31 0 -11
-4 -19 -10 -19 -5 0 -10 -9 -10 -19 0 -11 -4 -22 -9 -26 -13 -8 -41 -65 -41
-84 0 -9 -7 -25 -15 -35 -8 -11 -15 -32 -15 -47 0 -15 -4 -31 -10 -34 -5 -3
-10 -17 -10 -31 0 -14 -7 -47 -16 -74 -13 -40 -15 -84 -12 -242 4 -197 10
-233 55 -363 29 -83 54 -135 88 -190 14 -22 28 -47 32 -55 15 -32 83 -118 144
-181 227 -234 557 -363 883 -346 519 26 945 375 1076 881 27 106 30 132 30
271 0 168 -11 242 -60 386 -95 284 -281 508 -545 657 -79 44 -268 112 -314
112 -16 0 -33 5 -36 10 -8 13 -375 13 -395 0z"/>
<path d="M4300 5890 c-8 -5 -32 -10 -53 -10 -20 0 -45 -4 -55 -9 -9 -4 -44
-21 -77 -37 -153 -73 -229 -149 -295 -294 -4 -8 -12 -25 -18 -37 -7 -13 -12
-31 -12 -40 0 -10 -7 -31 -16 -48 -23 -45 -23 -255 0 -332 64 -205 197 -351
386 -425 310 -122 664 14 816 314 60 118 83 298 55 423 -27 119 -89 234 -170
318 -74 78 -200 152 -291 170 -67 14 -253 19 -270 7z m234 -140 c171 -49 301
-181 360 -365 21 -66 22 -219 1 -259 -8 -15 -15 -37 -15 -48 0 -62 -163 -238
-262 -282 -35 -16 -71 -33 -82 -38 -27 -14 -216 -12 -262 2 -152 50 -272 146
-329 264 -37 78 -65 176 -65 227 0 65 29 174 66 247 106 209 359 318 588 252z"/>
<path d="M8600 5890 c-8 -5 -32 -10 -53 -10 -20 0 -45 -4 -55 -9 -9 -5 -35
-17 -57 -27 -22 -11 -41 -22 -43 -26 -2 -5 -10 -8 -18 -8 -21 0 -108 -65 -137
-103 -14 -17 -34 -41 -44 -52 -27 -29 -103 -171 -103 -194 0 -11 -4 -22 -9
-25 -8 -5 -23 -121 -23 -181 0 -60 15 -176 23 -181 5 -3 9 -16 9 -28 0 -13 7
-29 15 -36 8 -7 15 -18 15 -26 0 -16 45 -98 78 -142 30 -40 131 -120 195 -156
117 -64 314 -90 447 -57 212 52 384 201 463 401 94 239 30 521 -163 707 -46
44 -222 138 -280 149 -63 12 -244 15 -260 4z m228 -139 c40 -10 98 -34 128
-52 69 -42 167 -145 194 -204 11 -24 24 -47 30 -50 5 -3 10 -21 10 -39 0 -17
5 -37 11 -43 19 -19 4 -219 -21 -278 -60 -142 -140 -230 -259 -286 -36 -17
-74 -35 -83 -40 -24 -12 -255 -12 -263 1 -3 6 -14 10 -24 10 -33 0 -136 58
-193 109 -108 98 -168 231 -168 376 0 232 131 414 351 489 91 31 186 34 287 7z"/>
<path d="M6394 4800 c-61 -4 -117 -11 -125 -16 -8 -4 -34 -11 -59 -15 -91 -15
-153 -34 -240 -72 -25 -11 -58 -25 -75 -33 -115 -49 -177 -83 -209 -113 -12
-12 -26 -21 -30 -21 -19 0 -145 -101 -244 -195 -96 -92 -262 -298 -262 -325 0
-4 -4 -10 -9 -12 -10 -3 -37 -47 -73 -118 -13 -25 -26 -46 -30 -48 -5 -2 -8
-8 -8 -14 0 -6 -10 -25 -23 -42 -20 -28 -35 -55 -51 -96 -4 -8 -15 -28 -26
-45 -10 -16 -25 -41 -33 -55 -37 -66 -72 -128 -89 -155 -10 -16 -21 -37 -25
-45 -6 -14 -54 -94 -81 -136 -6 -10 -15 -26 -19 -34 -4 -8 -26 -47 -49 -87
-24 -39 -52 -91 -64 -115 -12 -24 -34 -65 -50 -93 -47 -82 -60 -108 -60 -117
0 -5 -11 -24 -25 -42 -14 -18 -25 -38 -25 -44 0 -7 -4 -12 -10 -12 -5 0 -12
-11 -16 -25 -3 -14 -10 -25 -15 -25 -5 0 -9 -7 -9 -15 0 -8 -19 -45 -42 -82
-22 -38 -52 -88 -66 -113 -14 -25 -33 -58 -43 -75 -10 -16 -26 -46 -35 -65
-10 -19 -27 -48 -38 -65 -12 -16 -30 -48 -41 -70 -11 -22 -23 -41 -27 -43 -5
-2 -8 -12 -8 -22 0 -9 -7 -23 -15 -30 -8 -7 -15 -18 -15 -25 0 -7 -6 -18 -14
-25 -18 -14 -86 -152 -86 -173 0 -33 15 -49 99 -100 130 -80 392 -219 511
-271 495 -216 866 -326 1315 -391 230 -33 349 -40 655 -40 337 0 483 10 740
52 486 78 917 217 1385 448 155 76 433 236 513 295 50 37 44 71 -32 204 -35
61 -73 127 -83 146 -11 19 -80 141 -155 270 -129 226 -295 517 -335 590 -95
169 -242 425 -269 468 -19 29 -34 54 -34 57 0 2 -25 48 -57 102 -31 54 -67
118 -81 143 -14 25 -33 57 -43 72 -11 14 -19 29 -19 33 0 9 -94 148 -146 216
-246 320 -650 579 -984 629 -30 4 -73 13 -95 18 -56 14 -288 20 -421 12z"/>
<path d="M8765 4399 c-22 -5 -65 -8 -95 -8 -30 -1 -71 -6 -90 -12 -19 -6 -55
-15 -80 -19 -80 -15 -104 -22 -137 -36 -17 -8 -42 -14 -55 -14 -31 0 -88 -50
-88 -78 0 -24 17 -55 96 -184 30 -48 54 -90 54 -93 0 -3 16 -31 35 -61 19 -30
35 -56 35 -59 0 -2 21 -39 48 -82 68 -113 71 -117 78 -133 4 -8 17 -28 28 -45
11 -16 33 -52 47 -80 14 -27 35 -66 46 -85 11 -19 35 -62 53 -95 18 -32 47
-82 65 -110 17 -27 34 -58 38 -68 4 -9 26 -48 50 -85 24 -37 52 -80 61 -97 9
-16 28 -48 41 -70 14 -22 37 -62 50 -88 14 -26 41 -72 60 -102 19 -30 35 -57
35 -60 0 -3 23 -41 50 -85 28 -44 50 -82 50 -85 0 -3 23 -41 50 -85 28 -44 50
-83 50 -86 0 -4 10 -21 23 -38 13 -17 31 -47 40 -67 24 -51 62 -89 91 -89 69
0 533 418 730 658 178 218 306 404 306 447 0 26 -53 82 -402 433 -365 365
-523 513 -567 530 -9 3 -24 13 -33 22 -10 9 -57 36 -105 59 -49 24 -96 47
-105 52 -10 5 -23 9 -29 9 -6 0 -25 6 -42 14 -68 29 -235 66 -304 66 -32 1
-76 4 -98 8 -22 4 -58 5 -80 1z m140 -139 c348 -41 530 -136 845 -446 647
-635 620 -606 613 -639 -3 -16 -25 -54 -47 -84 -23 -29 -46 -62 -52 -73 -6
-10 -20 -29 -30 -41 -11 -12 -32 -40 -49 -62 -51 -68 -121 -142 -358 -377
-180 -178 -239 -231 -274 -244 -39 -15 -46 -16 -54 -3 -14 22 -52 87 -140 241
-45 79 -119 206 -164 283 -145 246 -431 736 -497 849 -34 60 -83 144 -107 185
-24 42 -74 128 -112 191 -37 63 -70 127 -74 141 -6 24 -4 26 67 44 75 19 231
41 303 44 22 0 81 -4 130 -9z"/>
<path d="M4265 4379 c-22 -5 -69 -14 -105 -19 -104 -15 -133 -21 -165 -35 -16
-7 -41 -17 -55 -23 -128 -49 -205 -90 -305 -158 -69 -48 -211 -190 -284 -284
-86 -111 -134 -170 -187 -228 -50 -57 -124 -155 -124 -165 0 -3 -11 -18 -25
-33 -14 -15 -25 -31 -25 -36 0 -5 -11 -21 -25 -36 -14 -15 -25 -32 -25 -38 0
-6 -11 -21 -25 -34 -14 -13 -25 -28 -25 -32 0 -5 -11 -24 -25 -42 -14 -18 -25
-38 -25 -44 0 -7 -4 -12 -10 -12 -5 0 -17 -14 -26 -32 -9 -17 -38 -62 -65 -99
-66 -91 -65 -104 18 -209 146 -185 596 -610 762 -721 47 -31 87 -37 113 -16 9
6 46 66 83 132 37 66 84 149 105 185 181 310 463 792 505 865 79 136 151 260
343 595 96 168 181 314 188 325 16 22 18 63 5 83 -14 23 -43 35 -207 83 -17 5
-47 9 -67 9 -19 0 -47 4 -61 9 -37 15 -215 21 -261 10z m263 -144 c53 -9 111
-21 129 -27 28 -10 31 -15 27 -42 -7 -40 -22 -71 -60 -126 -18 -25 -42 -65
-54 -90 -32 -66 -65 -127 -77 -142 -6 -7 -23 -35 -39 -63 -15 -27 -34 -62 -43
-77 -9 -14 -34 -57 -56 -95 -22 -37 -45 -77 -52 -88 -7 -11 -15 -27 -19 -35
-4 -8 -22 -37 -39 -65 -17 -27 -34 -57 -38 -65 -4 -8 -18 -33 -32 -55 -14 -22
-31 -50 -37 -62 -6 -13 -15 -23 -20 -23 -4 0 -8 -8 -8 -19 0 -10 -7 -24 -15
-31 -8 -7 -15 -16 -15 -21 0 -12 -52 -93 -62 -97 -5 -2 -8 -12 -8 -23 0 -10
-4 -19 -8 -19 -5 0 -16 -19 -26 -42 -11 -24 -24 -50 -31 -58 -7 -8 -22 -31
-32 -50 -11 -19 -35 -62 -53 -95 -18 -33 -40 -71 -50 -85 -9 -14 -20 -32 -23
-40 -4 -8 -11 -22 -17 -30 -44 -69 -110 -181 -110 -188 0 -29 -77 -132 -98
-132 -26 0 -195 141 -376 313 -132 126 -239 242 -317 346 l-27 35 62 95 c155
244 343 492 613 811 141 167 300 277 494 341 177 59 337 72 517 44z"/>
</g>
</svg>
